<svg xmlns="http://www.w3.org/2000/svg" width="19.605" height="19.9" viewBox="0 0 19.605 19.9">
  <g id="Page-1" transform="translate(-0.261)">
    <g id="Core" transform="translate(-464 -380)">
      <g id="settings" transform="translate(464 380)">
        <path id="Shape" d="M17.4,11c0-.3.1-.6.1-1a3.083,3.083,0,0,0-.1-1l2.1-1.7a.471.471,0,0,0,.1-.6l-2-3.5a.56.56,0,0,0-.6-.1l-2.5,1a9.5,9.5,0,0,0-1.7-1L12.4.5A.4.4,0,0,0,12,0H8c-.2,0-.5.2-.5.4L7.1,3.1a7.543,7.543,0,0,0-1.7,1L3,3.1a.618.618,0,0,0-.7.2L.3,6.8c-.1.1,0,.4.2.6L2.6,9c0,.3-.1.6-.1,1a3.083,3.083,0,0,0,.1,1L.5,12.7a.471.471,0,0,0-.1.6l2,3.5a.56.56,0,0,0,.6.1l2.5-1a9.5,9.5,0,0,0,1.7,1l.4,2.6a.458.458,0,0,0,.5.4h4c.2,0,.5-.2.5-.4l.4-2.6a9.5,9.5,0,0,0,1.7-1l2.5,1a.481.481,0,0,0,.6-.2l2-3.5c.1-.2.1-.5-.1-.6L17.4,11ZM10,13.5A3.5,3.5,0,1,1,13.5,10,3.543,3.543,0,0,1,10,13.5Z" fill="#757575" fill-rule="evenodd"/>
      </g>
    </g>
  </g>
</svg>
